<svg width="185" height="185" viewBox="0 0 185 185" fill="none" xmlns="http://www.w3.org/2000/svg">
<path d="M153 164V65.0073M153 65.0073C153 54.7896 145.593 43 133.822 43C122.052 43 114.644 54.7896 114.644 65.0073M153 65.0073H114.644M114.644 65.0073V73.8716M28 112.697V154C28 159.523 32.4772 164 38 164H43.4014H48.8028C54.3256 164 58.8028 159.523 58.8028 154V142.759C58.8028 137.236 63.2799 132.759 68.8028 132.759H75.1294H81.4559C86.9788 132.759 91.4559 137.236 91.4559 142.759V154C91.4559 159.523 95.9331 164 101.456 164H110.639C116.162 164 120.639 159.523 120.639 154V112.697L106.769 92.4151L75.1294 78.5875L43.4899 92.4151L28 112.697ZM69.0621 105.347H81.1967C81.7489 105.347 82.1967 105.795 82.1967 106.347V110.773C82.1967 111.326 81.7489 111.773 81.1967 111.773H69.0621C68.5098 111.773 68.0621 111.326 68.0621 110.773V106.347C68.0621 105.795 68.5098 105.347 69.0621 105.347Z" stroke="currentColor" stroke-width="12" stroke-linecap="round"/>
</svg>
