<svg width="185" height="185" viewBox="0 0 185 185" fill="none" xmlns="http://www.w3.org/2000/svg">
<path d="M50.577 124.971L22.4227 120.971C21.5309 120.844 21.2481 119.696 21.9793 119.169L75.3837 80.737C75.5756 80.5989 75.8101 80.5333 76.0457 80.5517L145.749 85.9941C146.624 86.0624 146.993 87.1441 146.342 87.7328L141.008 92.5563M50.577 124.971L98.3123 131.383C98.6039 131.422 98.898 131.331 99.1162 131.134L129.201 103.926M50.577 124.971L54.9406 151.438C55.1916 152.96 56.0106 154.345 57.2945 155.201C80.7896 170.864 116.841 160.827 133.535 143.677C134.77 142.409 135.249 140.61 134.961 138.864C132.431 123.518 130.337 110.819 129.201 103.926M129.201 103.926L141.008 92.5563M141.008 92.5563C167.283 95.1683 167.094 109.388 161.239 119.982C156.556 128.457 159.758 136.611 161.945 139.629" stroke="currentColor" stroke-width="12" stroke-linecap="round"/>
</svg>
