<svg xmlns="http://www.w3.org/2000/svg"><symbol id="arrow-right" fill="none" viewBox="0 0 24 24"><path d="M16.175 13H4V11H16.175L10.575 5.4L12 4L20 12L12 20L10.575 18.6L16.175 13Z" fill="currentColor"/></symbol><symbol id="cross" fill="none" viewBox="0 0 24 24"><path d="M6.4 19L5 17.6L10.6 12L5 6.4L6.4 5L12 10.6L17.6 5L19 6.4L13.4 12L19 17.6L17.6 19L12 13.4L6.4 19Z" fill="currentColor"/></symbol><symbol id="not-visible" fill="none" viewBox="0 0 24 24"><path d="M16.1 13.3L14.65 11.85C14.8 11.0667 14.575 10.3333 13.975 9.65C13.375 8.96667 12.6 8.7 11.65 8.85L10.2 7.4C10.4833 7.26667 10.7708 7.16667 11.0625 7.1C11.3542 7.03334 11.6667 7 12 7C13.25 7 14.3125 7.4375 15.1875 8.3125C16.0625 9.1875 16.5 10.25 16.5 11.5C16.5 11.8333 16.4667 12.1458 16.4 12.4375C16.3333 12.7292 16.2333 13.0167 16.1 13.3ZM19.3 16.45L17.85 15.05C18.4833 14.5667 19.0458 14.0375 19.5375 13.4625C20.0292 12.8875 20.45 12.2333 20.8 11.5C19.9667 9.81667 18.7708 8.47917 17.2125 7.4875C15.6542 6.49584 13.9167 6 12 6C11.5167 6 11.0417 6.03334 10.575 6.1C10.1083 6.16667 9.65 6.26667 9.2 6.4L7.65 4.85C8.33333 4.56667 9.03333 4.35417 9.75 4.2125C10.4667 4.07084 11.2167 4 12 4C14.5167 4 16.7583 4.69584 18.725 6.0875C20.6917 7.47917 22.1167 9.28334 23 11.5C22.6167 12.4833 22.1125 13.3958 21.4875 14.2375C20.8625 15.0792 20.1333 15.8167 19.3 16.45ZM19.8 22.6L15.6 18.45C15.0167 18.6333 14.4292 18.7708 13.8375 18.8625C13.2458 18.9542 12.6333 19 12 19C9.48333 19 7.24167 18.3042 5.275 16.9125C3.30833 15.5208 1.88333 13.7167 1 11.5C1.35 10.6167 1.79167 9.79584 2.325 9.0375C2.85833 8.27917 3.46667 7.6 4.15 7L1.4 4.2L2.8 2.8L21.2 21.2L19.8 22.6ZM5.55 8.4C5.06667 8.83334 4.625 9.30834 4.225 9.825C3.825 10.3417 3.48333 10.9 3.2 11.5C4.03333 13.1833 5.22917 14.5208 6.7875 15.5125C8.34583 16.5042 10.0833 17 12 17C12.3333 17 12.6583 16.9792 12.975 16.9375C13.2917 16.8958 13.6167 16.85 13.95 16.8L13.05 15.85C12.8667 15.9 12.6917 15.9375 12.525 15.9625C12.3583 15.9875 12.1833 16 12 16C10.75 16 9.6875 15.5625 8.8125 14.6875C7.9375 13.8125 7.5 12.75 7.5 11.5C7.5 11.3167 7.5125 11.1417 7.5375 10.975C7.5625 10.8083 7.6 10.6333 7.65 10.45L5.55 8.4Z" fill="currentColor"/></symbol><symbol id="profile" fill="none" viewBox="0 0 24 24"><path d="M5.85 17.1C6.7 16.45 7.65 15.9375 8.7 15.5625C9.75 15.1875 10.85 15 12 15C13.15 15 14.25 15.1875 15.3 15.5625C16.35 15.9375 17.3 16.45 18.15 17.1C18.7333 16.4167 19.1875 15.6417 19.5125 14.775C19.8375 13.9083 20 12.9833 20 12C20 9.78333 19.2208 7.89583 17.6625 6.3375C16.1042 4.77917 14.2167 4 12 4C9.78333 4 7.89583 4.77917 6.3375 6.3375C4.77917 7.89583 4 9.78333 4 12C4 12.9833 4.1625 13.9083 4.4875 14.775C4.8125 15.6417 5.26667 16.4167 5.85 17.1ZM12 13C11.0167 13 10.1875 12.6625 9.5125 11.9875C8.8375 11.3125 8.5 10.4833 8.5 9.5C8.5 8.51667 8.8375 7.6875 9.5125 7.0125C10.1875 6.3375 11.0167 6 12 6C12.9833 6 13.8125 6.3375 14.4875 7.0125C15.1625 7.6875 15.5 8.51667 15.5 9.5C15.5 10.4833 15.1625 11.3125 14.4875 11.9875C13.8125 12.6625 12.9833 13 12 13ZM12 22C10.6167 22 9.31667 21.7375 8.1 21.2125C6.88333 20.6875 5.825 19.975 4.925 19.075C4.025 18.175 3.3125 17.1167 2.7875 15.9C2.2625 14.6833 2 13.3833 2 12C2 10.6167 2.2625 9.31667 2.7875 8.1C3.3125 6.88333 4.025 5.825 4.925 4.925C5.825 4.025 6.88333 3.3125 8.1 2.7875C9.31667 2.2625 10.6167 2 12 2C13.3833 2 14.6833 2.2625 15.9 2.7875C17.1167 3.3125 18.175 4.025 19.075 4.925C19.975 5.825 20.6875 6.88333 21.2125 8.1C21.7375 9.31667 22 10.6167 22 12C22 13.3833 21.7375 14.6833 21.2125 15.9C20.6875 17.1167 19.975 18.175 19.075 19.075C18.175 19.975 17.1167 20.6875 15.9 21.2125C14.6833 21.7375 13.3833 22 12 22ZM12 20C12.8833 20 13.7167 19.8708 14.5 19.6125C15.2833 19.3542 16 18.9833 16.65 18.5C16 18.0167 15.2833 17.6458 14.5 17.3875C13.7167 17.1292 12.8833 17 12 17C11.1167 17 10.2833 17.1292 9.5 17.3875C8.71667 17.6458 8 18.0167 7.35 18.5C8 18.9833 8.71667 19.3542 9.5 19.6125C10.2833 19.8708 11.1167 20 12 20ZM12 11C12.4333 11 12.7917 10.8583 13.075 10.575C13.3583 10.2917 13.5 9.93333 13.5 9.5C13.5 9.06667 13.3583 8.70833 13.075 8.425C12.7917 8.14167 12.4333 8 12 8C11.5667 8 11.2083 8.14167 10.925 8.425C10.6417 8.70833 10.5 9.06667 10.5 9.5C10.5 9.93333 10.6417 10.2917 10.925 10.575C11.2083 10.8583 11.5667 11 12 11Z" fill="currentColor"/></symbol><symbol id="read-more" fill="none" viewBox="0 0 30 6"><circle cx="3" cy="3" r="3" fill="currentColor" /><circle cx="15" cy="3" r="3" fill="currentColor"/><circle cx="27" cy="3" r="3" fill="currentColor"/></symbol><symbol id="search" fill="none" viewBox="0 0 24 24"><path d="M19.6 21L13.3 14.7C12.8 15.1 12.225 15.4167 11.575 15.65C10.925 15.8833 10.2333 16 9.5 16C7.68333 16 6.14583 15.3708 4.8875 14.1125C3.62917 12.8542 3 11.3167 3 9.5C3 7.68333 3.62917 6.14583 4.8875 4.8875C6.14583 3.62917 7.68333 3 9.5 3C11.3167 3 12.8542 3.62917 14.1125 4.8875C15.3708 6.14583 16 7.68333 16 9.5C16 10.2333 15.8833 10.925 15.65 11.575C15.4167 12.225 15.1 12.8 14.7 13.3L21 19.6L19.6 21ZM9.5 14C10.75 14 11.8125 13.5625 12.6875 12.6875C13.5625 11.8125 14 10.75 14 9.5C14 8.25 13.5625 7.1875 12.6875 6.3125C11.8125 5.4375 10.75 5 9.5 5C8.25 5 7.1875 5.4375 6.3125 6.3125C5.4375 7.1875 5 8.25 5 9.5C5 10.75 5.4375 11.8125 6.3125 12.6875C7.1875 13.5625 8.25 14 9.5 14Z" fill="currentColor"/></symbol><symbol id="visible" fill="none" viewBox="0 0 24 24"><path d="M12 16C13.25 16 14.3125 15.5625 15.1875 14.6875C16.0625 13.8125 16.5 12.75 16.5 11.5C16.5 10.25 16.0625 9.1875 15.1875 8.3125C14.3125 7.4375 13.25 7 12 7C10.75 7 9.6875 7.4375 8.8125 8.3125C7.9375 9.1875 7.5 10.25 7.5 11.5C7.5 12.75 7.9375 13.8125 8.8125 14.6875C9.6875 15.5625 10.75 16 12 16ZM12 14.2C11.25 14.2 10.6125 13.9375 10.0875 13.4125C9.5625 12.8875 9.3 12.25 9.3 11.5C9.3 10.75 9.5625 10.1125 10.0875 9.5875C10.6125 9.0625 11.25 8.8 12 8.8C12.75 8.8 13.3875 9.0625 13.9125 9.5875C14.4375 10.1125 14.7 10.75 14.7 11.5C14.7 12.25 14.4375 12.8875 13.9125 13.4125C13.3875 13.9375 12.75 14.2 12 14.2ZM12 19C9.56667 19 7.35 18.3208 5.35 16.9625C3.35 15.6042 1.9 13.7833 1 11.5C1.9 9.21667 3.35 7.39583 5.35 6.0375C7.35 4.67917 9.56667 4 12 4C14.4333 4 16.65 4.67917 18.65 6.0375C20.65 7.39583 22.1 9.21667 23 11.5C22.1 13.7833 20.65 15.6042 18.65 16.9625C16.65 18.3208 14.4333 19 12 19ZM12 17C13.8833 17 15.6125 16.5042 17.1875 15.5125C18.7625 14.5208 19.9667 13.1833 20.8 11.5C19.9667 9.81667 18.7625 8.47917 17.1875 7.4875C15.6125 6.49583 13.8833 6 12 6C10.1167 6 8.3875 6.49583 6.8125 7.4875C5.2375 8.47917 4.03333 9.81667 3.2 11.5C4.03333 13.1833 5.2375 14.5208 6.8125 15.5125C8.3875 16.5042 10.1167 17 12 17Z" fill="currentColor"/></symbol></svg>