<svg xmlns="http://www.w3.org/2000/svg"><symbol id="additional-features" fill="none" viewBox="0 -960 960 960"><path d="m370-80-16-128q-13-5-24.5-12T307-235l-119 50L78-375l103-78q-1-7-1-13.5v-27q0-6.5 1-13.5L78-585l110-190 119 50q11-8 23-15t24-12l16-128h220l16 128q13 5 24.5 12t22.5 15l119-50 110 190-103 78q1 7 1 13.5v27q0 6.5-2 13.5l103 78-110 190-118-50q-11 8-23 15t-24 12L590-80H370Zm70-80h79l14-106q31-8 57.5-23.5T639-327l99 41 39-68-86-65q5-14 7-29.5t2-31.5q0-16-2-31.5t-7-29.5l86-65-39-68-99 42q-22-23-48.5-38.5T533-694l-13-106h-79l-14 106q-31 8-57.5 23.5T321-633l-99-41-39 68 86 64q-5 15-7 30t-2 32q0 16 2 31t7 30l-86 65 39 68 99-42q22 23 48.5 38.5T427-266l13 106Zm42-180q58 0 99-41t41-99q0-58-41-99t-99-41q-59 0-99.5 41T342-480q0 58 40.5 99t99.5 41Zm-2-140Z" fill="currentColor"/></symbol><symbol id="price" fill="none" viewBox="0 -960 960 960"><path d="M220-60 80-200l140-140 57 56-44 44h494l-43-44 56-56 140 140L740-60l-57-56 44-44H233l43 44-56 56Zm260-460q-50 0-85-35t-35-85q0-50 35-85t85-35q50 0 85 35t35 85q0 50-35 85t-85 35ZM200-400q-33 0-56.5-23.5T120-480v-320q0-33 23.5-56.5T200-880h560q33 0 56.5 23.5T840-800v320q0 33-23.5 56.5T760-400H200Zm80-80h400q0-33 23.5-56.5T760-560v-160q-33 0-56.5-23.5T680-800H280q0 33-23.5 56.5T200-720v160q33 0 56.5 23.5T280-480Zm-80 0v-320 320Z" fill="currentColor" /></symbol><symbol id="property-type" fill="none" viewBox="0 -960 960 960"><path d="M160-160v-375l-72 55-47-63 439-337 440 336-48 64-392-300-240 184v356h160v80H160Zm540 95q-42 29-92.5 24.5T521-81q-36-36-40.5-86.5T505-260q-29-42-24.5-92.5T521-439q36-36 86.5-40.5T700-455q42-29 92.5-24.5T879-439q36 36 40.5 86.5T895-260q29 42 24.5 92.5T879-81q-36 36-86.5 40.5T700-65Zm0-98 46 32q18 13 39 11t37-18q16-16 18-37t-11-39l-32-46 32-46q13-18 11-39t-18-37q-16-16-37-18t-39 11l-46 32-46-32q-18-13-39-11t-37 18q-16 16-18 37t11 39l32 46-32 46q-13 18-11 39t18 37q16 16 37 18t39-11l46-32Zm0-47q21 0 35.5-14.5T750-260q0-21-14.5-35.5T700-310q-21 0-35.5 14.5T650-260q0 21 14.5 35.5T700-210ZM480-470Zm220 210Z" fill="currentColor"/></symbol><symbol id="room-count" fill="none" viewBox="0 -960 960 960"><path d="M160-120v-480l320-240 320 240v480H160Zm80-80h280v-120H240v120Zm360 0h120v-120H600v120ZM240-400h120v-119H240v119Zm200 0h280v-119H440v119ZM292-599h376L480-740 292-599Z" fill="currentColor"/></symbol></svg>